<?xml version="1.0" standalone="no"?>
<!DOCTYPE svg PUBLIC "-//W3C//DTD SVG 20010904//EN"
 "http://www.w3.org/TR/2001/REC-SVG-20010904/DTD/svg10.dtd">
<svg version="1.0" xmlns="http://www.w3.org/2000/svg"
 width="512.000000pt" height="512.000000pt" viewBox="0 0 512.000000 512.000000"
 preserveAspectRatio="xMidYMid meet">

<g transform="translate(0.000000,512.000000) scale(0.100000,-0.100000)"
fill="#000000" stroke="none">
<path d="M1625 3825 c-57 -20 -109 -80 -124 -142 -29 -121 37 -238 148 -262
35 -7 278 -11 759 -11 l707 0 -906 -907 c-975 -976 -937 -934 -926 -1029 14
-129 152 -222 273 -184 32 10 208 180 947 919 l907 906 0 -707 c0 -481 4 -724
11 -759 24 -111 140 -177 262 -148 64 15 129 75 146 134 16 58 16 2019 -1
2066 -19 57 -49 90 -102 115 l-51 24 -1005 -1 c-840 0 -1012 -2 -1045 -14z"/>
</g>
</svg>
